<?xml version="1.0" encoding="UTF-8"?>
<svg id="Layer_2" data-name="Layer 2" xmlns="http://www.w3.org/2000/svg" viewBox="0 0 1080 1080">
  <defs>
    <style>
      .cls-1 {
        fill: none;
      }
    </style>
  </defs>
  <g id="Layer_1-2" data-name="Layer 1">
    <path class="cls-1" d="m1080,1080H0V0c360,0,720,0,1080,0v1080ZM262.66,389.77l-.19-.21c-2.1,4.47-4.41,8.85-6.26,13.42-3.52,8.67-4.53,18.09-7.13,27.05-3.3,11.36-1.08,24.08,7.18,34.28,2.57,3.17,5.19,6.3,7.79,9.45-.79.62-1.59,1.24-2.38,1.87-6.53-8.32-13.06-16.64-20.68-26.35-.06,12.58,6.12,20.68,11.06,29.68-3.55-1.31-6.97-2.82-9.34-5.32-12.39-13.04-19.34-28.58-20.08-46.66-.26-6.45-.04-12.92-.04-19.38-1.84.51-2.32,1.21-2.68,1.97-.39.85-.84,1.73-.96,2.64-2.47,20.28-2.39,40.12,8.8,58.44,3.79,6.21,6.61,13.01,10.17,20.12,2.75.29,7.1.75,11.85,1.24,7.94-7.99,15.44-7.74,23.22,1.34,5.19,6.06,10.27,12.21,15.41,18.32.55-2.76-.03-4.73-.77-6.63-2.53-6.51-1.18-8.83,5.87-9.62,6.68-.75,11.32,2.7,14.49,8.01,7.33,12.28,16.24,21.44,32.23,18.28.43-.09.85-.23-.01,0,1.29-2.66,1.7-5.04,3.12-6.19,6.85-5.6,13.78-11.15,21.03-16.22,15.51-10.86,26.96-25.44,38-40.44.11-.15-.31-.68-.72-1.53-3.13,2.62-6.26,5.04-9.16,7.71-9.11,8.42-18.05,17.02-27.21,25.39-11.6,10.59-26.93,11.41-41.1,15.1-1.74.45-4.16-1.7-7.94-3.39,4.37-1.55,6.7-2.56,9.12-3.2,19.51-5.17,33.82-17.27,44.32-33.99,1.99-3.17,3.39-8.76,1.93-11.66-4.82-9.56,1.76-17.21,4.41-24.42,3.18-8.64,5.39-11.06.25-19.01-1.13-1.75-1.86-4.13-1.81-6.19.27-10.93-2.9-20.4-8.21-30.15-4.16-7.63-4.17-17.52-5.88-25.68-.35.91-1.44,3.13-2.04,5.47-2.3,9.02,1.1,16.99,4.68,25,9.08,20.33,3.5,42.19-14.01,53.69,4.31-22.9-3.98-40.83-21.26-55.29,2.01,4.53,4.02,9.07,6.04,13.6-.37.22-.74.43-1.12.65-6.09-9.31-12.17-18.61-18.26-27.92-.64.25-1.28.49-1.93.74,2.94,6.95,5.88,13.9,8.82,20.85-17.03-19.26-22.46-40.72-12.16-64.81,2.66-6.22,6.59-11.96,8.66-18.33,2.84-8.74,4.5-17.87,6.54-26.86.12-.55-.89-1.35-1.68-2.46-1.39,1.69-2.43,2.95-2.92,3.55.48-9.89.98-20.13,1.53-31.41,18.94,28.98,10,57.24.93,85.77,4.21-5.55,7.84-11.23,10.91-17.19,15.02-29.15,10.29-60.1-12.98-83.24-7.79-7.75-16.43-14.63-24.48-22.11-9.8-9.1-15.42-19.91-12.71-33.8.02-.09-.69-.31-2.87-1.26-.25,7.49-1.89,14.59-.38,20.95,2.43,10.28,6.87,20.09,10.65,30.02.4,1.06,2.03,2,3.27,2.35,9.98,2.81,13.3,11.49,16.67,19.63,6.69,16.16-1.12,30.75-6.01,45.55-1.78,5.39-3.97,10.64-5.98,15.95.7.25,1.39.5,2.09.74,2.34-3.33,4.68-6.67,7.01-10-1.13,6.92-2.46,13.74-5.45,19.73-2.42,4.84-4.98,9.16-5.35,14.87-.94,14.87-1.26,29.28,7.85,42.44,4.07,5.88,6.8,12.8,9.36,19.55,1.08,2.83,2.84,7.4-2.89,8.83-5.48-24.02-12.75-35.01-20.04-36.72,2.76,7.82,6.74,15.26,7.78,23.1,1,7.5.44,15.74-4.8,24.32-.48-8.19-.84-14.56-1.31-22.53-7.07,11.68-12.95,21.38-18.83,31.08.39-6.69,2.43-12.96,4.25-19.3,1.79-6.23,3.37-12.52,5.04-18.78-.88-.25-1.75-.5-2.63-.74-4.16,15.13-18.23,26.46-15.72,44.19-4.81-9.35-2.86-18.12,1.55-26.79,7.27-14.27,9.93-28.36,1-43.39-5.29-8.92-4.52-18.99.15-28.37,2.13-4.28,4.77-8.31,7.18-12.45-7.05,5.52-15.34,9.89-18.63,20.23,2.61-.97,4.06-1.5,6.96-2.57-4.93,11.25-4.72,21.28,1.18,30.89,4.14,6.75,2.74,13.3-1.08,19.66,0,0,.02-.02.02-.02-.38.47-.76.94-1.14,1.41-.12-.02-.24-.03-.36-.05.13-.05.26-.1.39-.15.27.49.55.97.82,1.46l-.07.12c-.28.41-.56.82-.84,1.23l-.45.1c.15-.1.3-.21.46-.31.29.36.57.73.86,1.09Zm-3.58,161.46c-4.54-5.31-8.15-13.24-13.86-15.28-7.44-2.67-12.67-5.94-16.53-12.52-1.74-2.97-4.1-5.86-6.85-7.88-2.09-1.54-5.24-1.63-8.25-2.46,2.68,4.71,4.25,8.25,6.51,11.29,4.83,6.48,8.95,14.29,15.35,18.59,6.73,4.53,15.79,5.59,23.83,8.17,5.62,11.08,16.11,14.63,28.13,18.75-10.33-6.8-19.33-12.73-28.33-18.66Zm322.57-225.66c-1.25-1.2-2.29-3.01-3.78-3.52-23.88-8.17-48.34-12.99-73.7-12.07-12.25.45-17.25,4.96-20.08,17.7,7.92.73,15.93.85,23.68,2.3,19.77,3.71,39.39,8.17,59.14,11.94,3.44.66,7.24-.53,10.88-.87-.12-.3-.25-.59-.37-.89-19.93-5.1-39.86-10.19-59.79-15.29.16-.73.33-1.47.49-2.2,20.77,4.27,41.54,8.53,62.31,12.8.21-.88.43-1.77.64-2.65-19.47-5.21-38.95-10.41-58.42-15.62,5.41-.52,10.78-.52,16.04.28,12,1.82,23.93,4.04,35.9,6.1h-5.54c-.09.72-.19,1.44-.28,2.16,4.87,1.46,9.75,2.93,14.62,4.39l.77-1.7c-.83-.96-1.67-1.91-2.5-2.87Zm325.99,252.57s-.27.14-.27.14l17.66-7.86c-.07-1.08-.14-2.16-.22-3.23-12.16-5.57-24.32-11.13-36.92-16.9-.58-2.97-1.97-6.98-1.93-10.98.02-2.28,1.88-5.78,3.76-6.48,2.3-.85,5.96-.07,8.08,1.39,1.38.95,1.74,4.5,1.33,6.64-.46,2.36-2.33,4.44-3.79,7.01,8.18,3.78,16.05,7.42,24.82,11.47-.33-6.66-.58-11.55-.89-17.74,5.24,7.86,9.55,14.32,14.2,21.31,4.94-3.74,10.4-5.98,12.49-9.98,2.15-4.12,2.03-10.14,1.12-15-4.54-24.26-27.5-37.37-52.38-30.42-16.74,4.68-28,18.93-28.36,35.89-.36,17.42,9.76,31.64,26.31,37.43,5.68,1.99,10.49,1,14.98-2.69Zm-149.17,229.88c-.29-.27-.58-.55-.87-.82,3.49-3.1,6.99-6.2,10.47-9.31,3.23-2.89,6.45-5.79,9.95-8.93-159.72,95.09-319.13,98.69-479.85,4.6,3.7,4.15,7.45,8.35,12.16,13.64-6.7-3.59-12.2-6.54-17.7-9.49l-.73,1.19c4.86,3.86,9.71,7.72,14.57,11.58-3.37-.6-5.96-2.19-8.61-3.65-2.61-1.44-5.29-2.77-7.93-4.15l-.58,1.08c4.49,4.05,8.97,8.09,13.46,12.14-.19.22-.38.44-.57.66-5.52-3.25-11.03-6.51-16.55-9.76-.26.44-.52.89-.78,1.33,4.57,3.99,9.13,7.98,13.7,11.97-.23.3-.46.59-.69.89-4.53-2.61-9.06-5.22-13.6-7.83-.54.71-1.08,1.42-1.63,2.13,3.37,2.94,6.75,5.88,10.12,8.82-.26.33-.53.66-.79.99-3.88-2.17-7.76-4.34-11.64-6.51-.32.5-.64,1.01-.96,1.51,4.24,3.89,8.48,7.77,12.71,11.66-.24.3-.47.61-.71.91-4.9-2.77-9.8-5.53-14.71-8.3-.29.4-.58.8-.87,1.2,4.63,4.16,9.27,8.33,13.9,12.49-.28.39-.56.77-.84,1.16-5.24-3.09-10.48-6.19-15.72-9.28-.34.43-.68.86-1.02,1.29,6.03,5.25,12.07,10.51,18.1,15.76-.21.28-.43.56-.64.84-6.14-3.74-12.28-7.47-18.42-11.21-.35.54-.71,1.09-1.06,1.63,6.73,5.71,13.45,11.42,20.18,17.14-.25.33-.5.65-.75.98-7.82-5.01-15.65-10.02-23.47-15.03,15.8,18.27,36.87,29.12,56.9,41.41-.52.78-1.03,1.56-1.55,2.34-19.13-12.08-38.27-24.16-56.99-35.99,1.96,2.87,4.21,6.15,7.47,10.91-4.08-2.51-6.52-4.01-8.95-5.51-.5.66-1,1.31-1.51,1.97,5.57,4.66,10.86,9.72,16.77,13.9,60.72,43.03,129.82,63.19,202.56,71.51,74.18,8.48,146.82-.63,217.37-25.32,34.89-12.21,67.64-28.73,98.06-49.77,3.38-2.34,6.06-5.7,9.07-8.58-.4-.38-.8-.76-1.2-1.14-2.22,1.27-4.44,2.55-6.67,3.82-.18-.29-.36-.58-.54-.86,2.33-3.38,4.66-6.77,7.34-10.65-18.28,11.29-35.72,22.06-53.17,32.83,16.86-13.84,37.63-22.23,50.84-40.6-8.42,5.94-16.85,11.89-25.27,17.83-.15-.28-.29-.56-.44-.84,8.41-7.79,16.82-15.57,25.23-23.36-.31-.36-.63-.72-.94-1.09-9.29,6.49-18.57,12.99-27.86,19.48-.23-.35-.45-.7-.68-1.05,8.78-7.51,17.55-15.02,26.33-22.52-.41-.55-.82-1.09-1.22-1.64-5.81,4.02-11.62,8.04-17.42,12.06-.17-.27-.35-.53-.52-.8l10.92-11.43c-.29-.4-.59-.79-.88-1.19-2.8,1.6-5.59,3.19-8.39,4.79-.13-.19-.27-.38-.4-.56,2.93-3.13,5.87-6.25,8.8-9.38-.4-.36-.8-.72-1.19-1.08-4.18,2.81-8.35,5.63-11.49,7.74,3.54-3.71,7.91-8.3,12.29-12.88-.37-.48-.74-.97-1.11-1.45-5.77,3.16-11.55,6.31-17.32,9.47-.19-.23-.37-.45-.56-.68,4.8-4.56,9.61-9.13,14.41-13.69l-.82-.99c-6.41,3.85-12.82,7.7-19.22,11.55-.11-.22-.22-.45-.33-.67,6.83-6.27,13.66-12.54,20.49-18.81-.29-.32-.59-.64-.88-.97-6.17,4.17-12.34,8.34-18.51,12.52-.24-.35-.47-.7-.71-1.05,4.92-4.89,9.84-9.77,14.76-14.66-.38-.44-.76-.88-1.14-1.32-6.46,4.37-12.91,8.75-19.37,13.12Zm-148.15-540.47c.18-.58.36-1.15.54-1.73,5.56.85,11.13,1.7,18.66,2.85-4.9-3.82-8.19-6.38-11.49-8.95.25-.52.5-1.04.75-1.57l14.81,1.05c.36-.49.71-.98,1.07-1.48-3.62-2.82-7.24-5.64-10.86-8.45.39-.49.79-.97,1.18-1.46,3.07.19,6.14.38,10.28.63-1.74-3.05-2.84-4.98-4.07-7.15,2.4-.87,4.46-1.62,7.23-2.63-2.04-2.75-3.69-4.96-5.86-7.88,3.8.26,6.62.45,9.43.64.52-.75,1.04-1.5,1.57-2.25-2.54-1.04-5.09-2.07-7.63-3.11.53-.76,1.05-1.53,1.58-2.29h9.14c.16-.47.31-.94.47-1.4-3.24-2.57-6.49-5.15-9.73-7.72.33-.68.66-1.37.99-2.05,9.91,4.09,19.82,8.19,29.73,12.28l1.08-1.56c-2.37-4.48-4.75-8.96-7.12-13.45.46-.41.92-.82,1.38-1.23,4.22,2.65,8.43,5.3,12.63,7.94,7.37-6.59-1.36-10.47-2.89-16.31,3,1.18,5.03,1.97,7.46,2.92-.57-2.18-1-3.81-1.75-6.67,5.53,2.19,9.98,3.95,15.17,6.01v-9.68c2.9,1.36,5.26,2.46,7.62,3.56.55-.4,1.1-.8,1.64-1.19-1.94-4.05-3.88-8.1-5.82-12.15.47-.36.93-.73,1.4-1.09,11.36,12.92,22.73,25.84,34.09,38.76.35-.19.7-.39,1.05-.58-3.81-7.48-7.62-14.97-11.43-22.45.43-.33.85-.66,1.28-.99,6.21,7.83,12.42,15.67,18.71,23.6.1-1.66.2-3.15.4-6.43,2.87,5.44,4.85,9.37,7.01,13.19.76,1.35,2.65,3.62,2.82,3.51,5.09-3.12,5.41,2.1,6.71,4.19,3.18,5.12,5.69,10.65,8.48,16.02.23-.05.45-.11.68-.16-.65-3.05-1.29-6.1-1.94-9.15l2.74-.69c8.48,26.94,16.97,53.87,25.87,82.12,0-2.23.18-3.16-.03-3.99-3.07-12.17-7.83-24.1-3.86-37.08.6-1.97-.62-4.56-1.18-6.82-4.52-18.25-11.41-35.5-21.23-51.61-3.61-5.92-6.25-12.43-9.33-18.67.51-.31,1.02-.61,1.54-.92,5.97,7.44,11.94,14.87,17.91,22.31-6.54-17.18-18.3-30.71-31.34-42.55-31.81-28.89-68.63-38.18-109.97-23.48-20.88,7.42-39.14,19.75-54.17,35.66-17.64,18.68-33.59,38.97-50.06,58.73-5.31,6.37-9.96,13.29-15.4,20.62,15.46,1.29,29.59,2.69,43.75,3.54,5.35.32,7.35,2.57,7.26,7.96-2.13-.27-3.94-.52-5.77-.72-13.47-1.51-26.92-3.26-40.42-4.34-3.74-.3-9.03.09-11.2,2.41-5.27,5.65-9.13,12.63-14.69,20.73,45.61-4.35,85.64,11.43,126.9,21.41-7.17-4.4-14.34-8.8-21.51-13.19.18-.44.36-.88.54-1.32,6.27,1.07,12.54,2.14,20.71,3.54-7.86-4.88-13.78-8.55-19.7-12.22.22-.63.45-1.25.67-1.88,6.71.78,13.41,1.57,20.12,2.35.13-.4.27-.8.4-1.2-8.23-4.54-16.46-9.08-24.7-13.62.15-.5.3-1,.45-1.5l21.21,3.05.47-1.84-17.32-10.37c.25-.68.51-1.36.76-2.03,6.26.9,12.52,1.8,18.78,2.71.11-.4.22-.81.33-1.21-4.99-3.29-9.98-6.57-14.96-9.86Zm200.89,29.83c.38,6.98.83,13.7,1.1,20.43.41,10.25,1.71,20.59.77,30.72-.93,10.01-8.75,12.61-15.72,5.24-5.15-5.44-10.42-12.46-11.68-19.48-1.81-10.12-8.18-15.96-14.44-22.32-5.39-5.47-11.12-10.7-17.2-15.4-14.96-11.56-28.57-25.66-49.23-27.52.63,2.39,1.24,4.68,1.38,5.21-6.38.73-12.57,1.44-18.53,2.12-1.96,6.54.5,10.22,5.68,13.64,29.45,19.44,56.4,41.64,78.52,69.54,30.87,38.95,52.26,82.24,60.23,131.35,9.98,61.43,2.63,121.35-18.9,179.64-3.93,10.63-7.34,21.45-11.53,33.78,3.39-1.76,6.54-2.46,8.23-4.42,12.95-14.93,24.43-30.84,31.07-49.73,3.13-8.89,6.2-17.81,9.29-26.72.65.18,1.31.36,1.96.54-2.74,14.14-6.56,28.1-11.89,41.49-5.4,13.58-12.04,26.66-18.13,39.96.21.57.42,1.14.63,1.71,2.35-1.25,5.74-1.89,6.89-3.84,5.67-9.67,11.33-19.42,15.91-29.62,12.12-27.02,15.53-56.26,20.78-85.02,1.01-5.5.31-10.13-2.47-15.28-7.79-14.39-10.66-30.12-3.52-45.24,4.16-8.8,5.88-16.64,2.98-25.7-.49-1.54-.55-3.23-.76-4.85-5.96-47.08-22.79-90.04-49.01-129.45-1.26-1.89-2.38-3.87-3.69-6.01,8.44-5.69,9.79-13.56,8.8-22.51-1.17-10.59-1.94-21.22-2.93-32.41,2.98,6.04,5.65,11.46,8.32,16.88.63-.33,1.26-.65,1.89-.98-1.61-6.05-3.84-12.01-4.65-18.16-.8-6.12-3.89-7.84-10.17-7.62Zm-448.69,246.78c-.15,2.21-.5,3.16-.22,3.86,8.01,19.66,6.88,40.17,6.59,60.83-.8,58.07-7.41,115.37-20.37,171.97-.89,3.9-4.7,8.43.66,12.06,3.4,2.3,6.95,4.37,12,7.52,22.26-79.67,30.55-158.74,15.92-238.76-.63-.42-.14-.24.12.11.55.75,1.04,1.56,1.45,2.39,5.95,12.25,8.69,24.76,9.57,38.77,2.6,41.55,2.52,82.9-3.53,124.05-3.47,23.58-8.94,46.86-13.27,70.32-.42,2.28.83,4.88,1.31,7.33,1.51-2.03,3.88-3.86,4.41-6.12,5.12-21.57,10.07-43.19,14.73-64.86,1.49-6.9,1.98-14.01,3.07-22.03,9.96,10.72,14.5,22.01,14.01,35.28-.47,12.6-.85,25.21-1.27,38,11.15-42.96,9.68-86.92,11.27-130.66,10.89,34.42,8.49,69.88,9.75,105.06,7.74-36.73,5.71-73.93,4.28-111.11,1.01-.11,2.02-.22,3.03-.33,4.9,26.06,9.8,52.13,14.7,78.19,4.4-52.82-5.75-102.79-28.55-150.38,2.1.67,4.99,1.58,8.27,2.62,0-3.49-1.21-8.19.22-9.22,4.8-3.46,2.32-7.49,1.11-10.4-2.73-6.55-6.66-12.6-10.64-19.83-10.17,6.73-19.27,12.75-28.55,18.89-9.38-4.22-19.33-8.69-30.06-13.52Zm215.73,104.77c.42-.23.84-.47,1.26-.7-1.85-4.47-3.36-9.11-5.61-13.37-12.27-23.25-20.68-47.47-21.9-74.12-.54-11.76-3.81-23.36-12.14-34.41v21.11c-2.75-10.84-5.05-19.92-7.35-29-.63.1-1.25.21-1.88.31-.39,2.35-.79,4.7-1.44,8.58-3.77-9.42-7-17.49-10.23-25.55-2.78,2.09-3.74,3.66-4.39,5.35-14.77,37.96-18.84,76.19-2.7,114.88,12.03,28.82,8.07,55.84-9.18,81.34-.91,1.35-1.89,3.61-3.01,3.71-7.14.69-8.84,7.14-11.9,11.52-23.48,33.65-12.45,87.02,22.55,110.34,10.22,6.81,21.17,11.14,33.78,8.01,7.71-1.91,13.65-7.58,13.38-15.12-.17-4.58-2.75-9.83-5.89-13.3-2.12-2.34-7.1-2.1-10.8-3.01-.16.69-.33,1.38-.49,2.07.47.44.87,1.02,1.42,1.31,4.59,2.46,7.98,6.23,5.6,11.29-2.63,5.58-7.99,3.51-12.37,1.94-10.07-3.61-16.8-11.04-21.21-20.43-9.72-20.71-10.5-42.51-3.43-63.72,4.44-13.33,12.31-25.61,19.31-37.98,12.27-21.68,14.26-43.71,3.78-66.55-4.39-9.57-9.08-19.01-13.26-28.68-6.98-16.16-10.03-39.65-6.44-52.83,3.15,49.56,29.72,83.67,66.14,112.14-4.3-9.3-8.6-18.59-12.9-27.89.28-.16.56-.33.84-.49,3.48,4.42,6.97,8.83,10.45,13.25Zm23.88-286.14c-58.84-20.67-118.03-38.47-181.37-22.71,29.03,2.94,57.22,8.73,84.54,23.96-2.66-.22-3.63-.12-4.46-.4-24.58-8.55-49.57-15.47-75.5-18.33-8.57-.94-17.37-1.43-25.91-.54-11.46,1.19-14.89,10.06-7.98,18.91,2.28,2.92,4.89,5.89,7.98,7.82,11.28,7.05,22.53,14.29,34.39,20.27,8.79,4.43,18.52,7.01,29.33,10.97-1.12-2.59-1.2-3.47-1.65-3.73-9-5.18-18.1-10.18-27.07-15.42-8.34-4.88-16.74-9.71-24.68-15.2-2.26-1.56-2.99-5.34-4.43-8.11.54-.24,1.09-.48,1.63-.73-2.32-1.27-4.65-2.55-6.97-3.82.11-.58.23-1.16.34-1.74,2.85-.14,5.79-.78,8.55-.34,7.85,1.26,15.96,2,23.37,4.64,32.83,11.67,65.5,23.82,98.15,36.02,40.32,15.06,80,32.01,122.15,41.69,14.06,3.23,28.18,6.17,42.28,9.25l.56-2.02c-36.4-10.83-72.46-22.51-106.16-40.1l.61-1.69c12.04,2.22,24.08,4.44,36.12,6.67.12-.62.23-1.24.35-1.86-10.52-5.28-21.03-10.56-31.55-15.83.24-.57.48-1.14.72-1.71,5.97.87,11.95,1.74,17.92,2.61.1-.5.2-1,.3-1.49-9.17-4.11-18.33-8.21-27.5-12.32.2-.79.41-1.58.61-2.37,7.38.91,14.76,1.81,22.14,2.72-4.12-3.41-8.49-6.04-12.97-8.48-4.27-2.32-8.65-4.43-12.98-6.64.27-.8.53-1.61.8-2.41,6.1.83,12.2,1.66,18.31,2.48Zm19.63,360.31c7.35-4.78,13.53-8.78,19.65-12.87.43-.29.39-1.28.59-1.93,2.65-8.65,8.98-12.21,17.61-9.63,3.33.99,6.49,2.56,9.9,3.93,5.36-6.59,11.22-9,20.04-5.97,10.04,3.45,16.22-.96,19.23-11.21.39-1.34.67-2.72,1.01-4.08,4.14-16.56,7.53-33.36,12.63-49.63,4.8-15.31,6.85-31.45,15.81-45.62,5.74-9.07.14-23.69,13.89-30.08-4.55-.54-8.61-.5-12.62-.05-23.27,2.61-46.52,5.49-69.82,7.84-5.11.51-7.25,2.45-8.46,7.25-7.29,28.83-14.82,57.59-22.3,86.37-5.53,21.26-11.1,42.51-17.16,65.68Zm-287.34,63.26c-3.74-12.32-11.07-22.11-21.19-29.59-11.02-8.14-21.81-16.33-31.44-26.31-14.64-15.17-30.61-16.11-48.07-4.22-5.37,3.66-10.61,7.91-14.84,12.81-13.38,15.5-29.63,24.05-50.43,22.91-.34-.02-.71.5-2.71,2.02,4.17,4.32,7.59,9.43,12.34,12.47,12.18,7.81,24.62,3.75,37.95-2.24-3.44,4.82-6.07,8.09-8.27,11.64-13,21.01-.33,49.16,23.95,53.35,11.71,2.02,22.52-3.34,26.67-13.41.67-1.62.52-3.57.76-5.37l-1.79-.68c-2.03,2.45-3.93,5.03-6.13,7.32-8.5,8.84-22.41,8.16-31.98-1.45-8.79-8.84-8.41-19.1,2.24-27.78,5.68-4.63,12.49-8.35,19.37-10.9,8.01-2.97,15.43-5.85,19.11-14.3.42-.97,1.56-1.79,2.56-2.34,14.13-7.79,36.28-14.48,53.69.79,5.96,5.22,12.12,10.2,18.19,15.29Zm396.9.63c4.37-3.83,8.7-7.71,13.13-11.47,20.29-17.25,39.87-18.91,62.59-5.18,1.64.99,3.48,2.99,3.7,4.71.72,5.54,4.9,6.66,8.95,8.62,8.99,4.35,18.58,8.06,26.4,14.04,10.67,8.15,10.3,19.44.85,28.32-10.11,9.5-22.68,9.38-30.88-.34-1.72-2.04-3.33-4.16-4.99-6.24-.66.26-1.33.51-1.99.77.2,1.72.02,3.6.65,5.15,4.13,10.12,16.35,16.03,27.29,13.37,18.88-4.58,31.31-25.58,25.36-44.26-2.26-7.08-6.84-13.41-9.94-19.27,25.07,9.65,41.21,5.24,46.99-14.43-23.07,5.07-38.55-7.04-52.99-22.25-5.09-5.36-11.12-10.13-17.44-13.98-18.26-11.14-38.88-6.94-50.21,11.22-4.35,6.96-10.22,10.99-16.21,15.51-3.73,2.82-7.74,5.28-11.43,8.14-9.17,7.11-16.66,15.56-19.83,27.58Zm-239.94-302.36l-2.32-1.31c5.06-8.35,10.13-16.7,15.52-25.6,2.78,8.59,4.3,15.99,7.47,22.61,8.24,17.21,22.91,28.22,39.1,37.06,20.85,11.38,39.83,24.04,44.11,51.12,6.84-16.55,5.41-31.39-5.73-43.21-18.38-19.49-32.4-41.15-43.23-65.75-9.21-20.93-25.57-20.84-38.46-10.17-11.56-8.74-19.25-8.01-29.08,2.88-1.72,1.9-3.15,4.06-4.65,6.15-8.98,12.53-18.26,24.86-26.78,37.69-4.33,6.52-7.52,13.85-10.77,21.03-.98,2.16-.43,5-.53,6.75,6.89-7.57,13.69-15.05,20.5-22.53.56.5,1.12,1,1.68,1.5-1.89,2.29-3.78,4.57-6.34,7.68,28.5-8.37,45-22.86,49.25-42.83-3.37,5.87-6.56,11.41-9.74,16.94Zm-145.84-177.7c2.65-1.74,3.74-2.45,4.83-3.16,16.1-10.38,31.6-21.87,48.42-30.92,40.02-21.53,82.96-32.74,128.64-32.62,2.52,0,5.04-1,7.55-1.53-.12-.62-.25-1.23-.37-1.85-6.71-1.79-13.42-3.57-20.13-5.36.17-.56.33-1.11.5-1.67q12.4,4.47,17.01,1.41c-10.18-1.73-18.98-6.03-25.37-13.89-2.84-3.49-5.54-4.14-9.56-3.72-51.91,5.48-99.85,22.1-143.41,50.99-1.72,1.14-3.51,4.12-3.27,5.98,1.55,11.97.8,23.6-4.85,36.33Zm285.19,529.51c-2.01.54-4.62,1.57-7.32,1.92-23.9,3.08-47.74,7.55-71.74,8.73-69.8,3.45-136.62-10.17-199.7-40.19-17.66-8.4-33.76-20.09-50.68-30.09-1.65-.98-4.09-.62-6.16-.89.79,2.19,1.36,4.51,2.46,6.53.62,1.14,2.08,1.84,3.19,2.7,20.46,15.95,42.9,28.75,66.81,38.39,92.33,37.24,186.77,43.49,282.97,16.97,38.15-10.52,74.23-26.03,107.4-47.81,6.65-4.37,12.53-9.89,19.65-15.59-8.05-4.61-12.57-.41-16.83,2.71-30.61,22.41-64.77,37.38-100.76,48.53-21.57,6.68-22.87,5.83-27.53-16.62-1.23-5.93-2.23-11.91-3.33-17.87-.93.13-1.87.26-2.8.39,1.43,13.8,2.87,27.6,4.38,42.18Zm-138.98-136.84c1.46-.41,2.01-.41,2.32-.68.7-.61,1.33-1.31,1.91-2.03,15.34-19.21,17.59-40.76,10.98-63.69-3.3-11.45-8.21-22.51-10.64-34.11-6.1-29.06-.92-57.64,5.5-86.03.26-1.13.34-2.3.7-4.85-2.34,3.16-3.74,5.07-5.15,6.97-.45-.24-.9-.49-1.35-.73,2.33-4.86,4.67-9.73,7.68-16.01-3.2,2.18-5.03,3.43-6.87,4.68-.23-.25-.46-.51-.69-.76,1.64-2.63,3.27-5.26,4.91-7.89-14.88,8.13-24.57,20.55-30.06,36.12-11.06,31.38-6.63,61.86,6.5,91.54,10.89,24.62,24.04,48.71,14.26,77.48Zm185.14,7.31c12.6,11.65,25.11,23.22,37.61,34.79l-1.68,2.13c-2.52-1.44-5.24-2.62-7.54-4.37-11.75-8.93-23.31-18.1-35.1-26.96-3.7-2.78-7.74-5.32-12-7.04-1.78-.72-4.54.99-6.85,1.59.94,1.84,1.46,4.16,2.9,5.43,13.68,12.1,27.53,24.01,41.3,36.02,1.22,1.07,2.14,2.47,3.2,3.72-3.54-.23-6.38-1.27-8.71-2.99-12.79-9.47-25.45-19.13-38.18-28.69-4.13-3.1-8.26-3.65-13.27.81,16.56,13.68,32.71,27.01,48.85,40.35-.4.59-.79,1.18-1.19,1.76-3.3-1.56-6.95-2.64-9.84-4.76-11.51-8.43-22.98-16.95-34.09-25.9-7.92-6.38-11.52-7.35-18.02-2.35,14.13,10.67,28.44,20.81,42,31.86,17.98,14.65,37.34,9.25,56.8,5.27-2.28-.17-4.56-.35-6.85-.52,0-.44.02-.88.03-1.32,4.1-.93,8.19-1.86,13.7-3.12-2.85-1.36-4.04-1.92-5.52-2.62,3.31-1.39,5.98-2.52,9.44-3.97-2.73-.57-4.42-.93-7.76-1.63,3.26-1.24,5.03-1.7,6.59-2.54,9.61-5.23,19.45-10.12,28.55-16.12,2.38-1.57,4.12-7.2,3.23-10.07-2.33-7.56-6.25-14.62-9.95-22.78-13.43,6.7-1.95,16.44-.9,22.44-7.8,2.51-14.55,4.31-21,6.88-4.19,1.67-7.06,1.41-10.68-1.61-10.41-8.71-21.24-16.93-31.96-25.26-4.6-3.58-9.12-4.87-13.11,1.55Zm-381.53-159.51c-11.49-1.81-20.38-7.36-26.48-16.73-5.74-8.82-10.91-18.01-16.43-26.98-3.42-5.56-7.6-6.42-13.58-2.63,12.16,15.61,14.19,38.35,35.02,47.98-1.29,1.06-2.4,1.98-3.56,2.94,7.7,6.5,25.62,11.09,35.74,9.22-1.54-.78-2.84-1.44-4.15-2.1.22-.73.45-1.46.67-2.18,8.64,2.37,17.3,4.67,25.9,7.17,1.22.36,3.25,2,3.1,2.44-2.47,7.23,4.35,8.47,7.66,11.55,5.85,5.43,12.31,10.19,18.54,15.2.3.24.89.12,2.34.27.48-1.69,1.61-3.59,1.44-5.36-1.31-13.24-1.89-26.67-4.63-39.63-2.9-13.71-14.3-22.07-28.48-21.11-8.6.59-12.64-2.94-16.55-9.46-3.34-5.56-7.73-10.52-12-15.44-.88-1.01-3.3-.68-5.01-.96.03,1.69-.52,3.69.18,5.03,6.58,12.66,13.37,25.22,20.37,38.31-2.99-1.38-7.22-2.3-9.98-4.82-7.58-6.93-14.96-14.17-21.6-21.99-5.58-6.57-9.92-14.18-14.97-21.22-2.6-3.62-5.76-6.19-11.07-2.72,9.78,19.74,18.5,39.87,37.52,53.24Zm524.92,302.14c-3.76,14.8-15.15,22.93-26.49,30.85-64.08,44.79-136.33,66.67-213.25,74.21-60.23,5.9-119.78.81-178.27-15.37-39.95-11.05-78.16-26.06-113.22-48.48-16.32-10.44-31.31-22.24-41.18-39.46-.74-1.3-3.31-2.43-4.87-2.25-18.87,2.15-31.73-7.52-42.25-21.45-8.16-10.81-10.27-23.31-8.41-36.04-6.31-2.35-12.38-3.71-17.51-6.7-11.63-6.79-18.64-17.42-22.57-30.22-.64-2.07-2.19-3.87-3.31-5.79-.7.48-1.41.96-2.11,1.43,4.16,16.73,11.45,32.15,28.15,39.14,9.71,4.07,12.59,9.12,13.76,18.93,3.09,25.78,30.15,47.65,51.64,44.43,1.84-.27,4.53,2.27,6.17,4.09,6.71,7.42,12.3,16.12,19.88,22.45,24.33,20.32,52.47,34.42,81.75,45.94,100.05,39.36,202.43,46.08,306.9,20.61,48.43-11.81,94.02-30.29,135.57-58.05,12.84-8.58,25.67-17.42,32.23-32.45.54-1.23,2.94-2.46,4.37-2.35,23.84,1.82,50.06-23.33,51.67-51.67.31-5.5,2.11-7.94,7.41-9.86,17.6-6.4,31.25-25.17,30.57-42.26-1.69,1.29-3.29,2.87-3.77,4.73-4.77,18.58-15.84,30.89-34.62,36.13-1.77.49-3.96,3.68-3.97,5.63-.26,32.33-21.26,53.62-54.29,53.84Zm-557.81-146.94c-.03-.6.08-1.12-.09-1.52-1.56-3.65-3.08-7.33-4.79-10.92-18.6-39.05-31.88-79.74-32.79-123.23-.32-15.15-6.08-26.81-13.37-38.72-.86-1.4-1.62-2.91-2.73-4.07-2.1-2.2-4.41-4.18-6.64-6.26,10.93,20.58,8.1,40.04-2.35,59.33-.82,1.52-1.06,3.61-.9,5.37,4,42.41,13.76,83.07,36.36,119.87,2.46,4.01,5.01,5.01,9.05,2.97-5.6-11.6-11.56-22.94-16.65-34.67-10.09-23.25-12.07-31.76-9.09-36.81.98,2.2,2,4,2.61,5.92,6.75,21.25,17.95,40.09,31.21,57.82,2.52,3.37,4.91,7.11,10.16,4.92Zm-122.3-130.25c4.85,1.04,9.07,1.75,13.16,2.89,3.66,1.01,8.29,1.53,10.49,4.03,2.43,2.76,4.17,2.78,6.98,2.08,16.56-4.12,28.58-19.14,28.93-36.23.39-18.76-14.59-35.84-33.95-38.72-21.93-3.26-40.83,8.26-46.4,28.27-4.03,14.46.83,19.83,13.94,27.65,4.15-6.43,8.31-12.88,13.39-20.75-.33,6.3-.56,10.86-.93,17.88,9.71-4.45,18.07-8.28,25.59-11.73-1.52-1.85-3.63-3.78-4.92-6.15-2.22-4.08-.49-8.04,3.38-9.1,2.5-.68,5.86,1.8,8.83,2.87-2.71,4.46,2.42,8.85.26,13.02-.93,1.8-3.44,2.98-5.47,3.96-2.82,1.36-5.92,2.12-8.79,3.38-4.83,2.12-9.4,5.57-14.41,6.35-5.95.93-8.55,3.7-10.09,10.31Zm422.35,205.48c-2.03-2.42-4.39-4.64-6.03-7.3-12.31-19.88-10.9-40.15-.61-60.13,4.91-9.54,11.25-18.33,16.7-27.6,1.36-2.31,1.75-5.19,3.13-9.49-2.96,1.99-4.03,2.71-5.39,3.62-.18-2.23-.33-4.07-.51-6.36-1.55,1.25-2.47,1.99-3.25,2.62-1.29-5.01-2.46-9.59-4-15.61-4.5,8.74-8.35,15.66-11.7,22.81-5.44,11.62-11.56,23.06-15.61,35.18-7.58,22.66-3.73,55.26,24.42,71.96,5.19,3.08,10.94,5.25,16.48,7.73,14.3,6.41,18.5,16.8,12.63,31.36-.18.45.05,1.07.1,1.76,15.95-8.65,17.15-27.89,2.58-41.2-4.11-3.76-9.03-6.65-13.71-9.74-17.57-11.63-25.66-27.35-21.28-48.59.18-.87.02-1.81.02-4.12-6.27,16.21-3.91,31.84,6.03,53.11Zm-250.84-33.6c-1.29-11.31-2.62-21.04-3.48-30.81-3.51-40.1-.9-79.96,4.76-119.72.46-3.26-.43-6.71-.69-10.07-.81-.09-1.62-.18-2.42-.27-7.67,7.04-11.95,16.36-15.83,25.8-9.45,22.97-13.57,47.18-15.37,71.78-.75,10.25-1.11,20.66-.05,30.83.36,3.52,5.55,6.53,8.53,9.78,1.51-2.83,3.84-5.51,4.37-8.51,2.02-11.41,3.47-22.92,4.43-29.56,1.19,11.44,3.07,27.69,4.48,43.98.63,7.35,5.16,11.56,11.28,16.78Zm499.11-457.36c.24-4.4.51-6.85.5-9.31-.1-18.17-5.2-35.27-12.75-51.43-18.87-40.41-48.68-68.99-92.46-80.91-32.19-8.77-63.15-4.71-92.33,11.62-3.52,1.97-6.06,2.38-10.1.29-4.03-2.08-9.37-1.65-14.13-2.32-2.4-.34-5.19-.03-7.13-1.16-9.13-5.31-18.12-5.16-27.53-.78-2.25,1.05-5.21.83-7.84.8-8.31-.09-16.61-.29-24.91-.59-3.97-.15-7.95-.52-11.9-1.01-5.25-.65-10.82-3.05-15.63-1.96-8.95,2.03-17.42,5.67-27.02,4.8-2.84-.26-5.86,2.62-8.95,3.54-3.07.92-6.49,2.09-9.48,1.56-11.14-1.97-21.34-1.14-30.34,6.66-1.73,1.5-4.58,2.09-7,2.34-15.36,1.6-29.22,6.4-40.18,17.87-1.26,1.32-2.8,2.87-4.46,3.25-16.12,3.68-24.42,19.19-38.78,25.5-.23.1-.2.8-.51,2.16,6.48-3.14,13.79-4.72,18.03-9.21,6.43-6.8,13.81-10.92,22.16-14.12,1.71-.65,3.75-1.28,4.83-2.59,10.64-12.97,25.3-16.94,41.01-18.77,2-.23,4.5-.49,5.79-1.74,9.14-8.82,19.97-9.75,31.38-6.67,4.26,1.15,6.81.31,9.88-2.55,4.08-3.8,9.02-5.61,15.97-2.26-3.58,4.52-6.78,8.56-10.32,13.03,1.69,1.24,3.41,2.51,5.43,4,1.7-3.61,2.9-6.66,4.5-9.48,7.74-13.71,22.64-17.16,35.8-8.68,1.5.96,4.37.83,6.17.11,9.83-3.89,19.49-4.11,29.46-.37,2.11.79,5.38.27,7.42-.88,8.82-5.02,17.64-5.67,25.6.78,5.03,4.07,8.8,9.7,13.72,15.31,2.97-6.02-4.37-8.83-4.52-15.47,3.75.47,7.57.23,10.68,1.61,1.73.76,2.28,4.21,3.52,6.79.69-.38,2.29-1.28,3.88-2.17,23.1-12.97,47.48-21.87,74.36-18.9,58.54,6.46,95.51,40.62,115.99,93.97,5.55,14.47,7.87,30.18,12.19,47.39Zm99.33,426.75c17.23-1.4,31.49-19.6,30.03-37.49-1.32-16.21-12.4-31.39-25.38-34.78-18.12-4.72-33.76.94-44.27,16.04-5.33,7.65-5.24,11.53.44,18.88.8,1.03,1.56,2.1,2.41,3.09,5.77,6.77,10.48,15.18,17.63,19.82,6.84,4.44,15.94,7.96,24.95,2.49.91-.55,3.14,1.09,4.76,1.71-.8,1.45-1.29,3.24-2.45,4.27-2.35,2.09-5.06,3.76-8.11,5.96Zm-768.05-12.59c2.98.21,3.89.1,4.68.36,17.7,6.03,31.27,1.14,41.29-15.22,2.92-4.77,4.03-11.54,8.08-14.51,4.49-3.28,3.9-6.24,2.35-9.26-2.41-4.7-5.26-9.56-9.09-13.09-12.8-11.78-34.14-12.66-48.08-2.64-14.27,10.26-19.44,29.81-12.28,46.41,4.62,10.7,14.35,18.71,23.05,18.6-3-3.19-5.79-6.16-10.01-10.65Zm436.19-124.52c-.33.06-.66.13-.99.19-2.33-7.5-4.27-15.15-7.08-22.47-4.39-11.44-8.08-16.08-12.29-17.85,1.24,10.45,3.37,21.29,3.64,32.16.49,20.07,6.81,38.06,17,54.98,7.36,12.21,12.54,25.17,12.66,39.63.05,6.26-.77,12.53-1.27,19.85,16.51-25.82,8.42-49.59-3.15-73.29,3.45,4.42,6.14,8.99,8.98,13.47,2.84,4.47,5.83,8.85,8.75,13.27.88-.45,1.75-.9,2.63-1.34-18.93-25.49-22.23-56.9-32.47-85.68-.57.2-1.14.41-1.7.61,1.76,8.82,3.52,17.64,5.28,26.47Zm-423.43-182.72c7.42-11.48,8.96-26.54,21.82-34.73.83,1.73,1.36,2.82,1.67,3.47,10.12-6.92,19.86-13.75,29.79-20.32,10.54-6.97,19.68-15.24,24.83-27,2.03-4.63,2.95-9.74,4.37-14.64-.65-.34-1.31-.68-1.96-1.02-11.42,13.91-27.53,20.5-42.8,28.44-15.8,8.22-28.5,19.62-35.43,36.47-3.86,9.4-4.74,19.12-2.29,29.32Zm677.57-93.31c-1.94,10.49,1.96,18.72,8.01,26.13,6.91,8.46,34.85,26.57,45.37,31.29,5.17,2.32,10.22,6.61,13.34,11.32,3.78,5.72,5.4,12.84,8.06,19.31.94,2.3,2.17,4.47,3.27,6.71,3.04-15.86,1.42-30.27-8.03-43.14-7.24-9.85-16.46-17.26-27.14-22.9-15.21-8.04-31.93-13.76-42.87-28.72Zm-240,460.75l2.27,1.58c1.4-1.93,3.49-3.67,4.09-5.82,3.62-12.84,6.96-25.77,10.27-38.69,13.1-51.04,26.19-102.07,39.14-153.14,1.05-4.16,2.58-6.23,7.26-6.7,32.54-3.23,65.05-6.78,97.57-10.23.05-.88.1-1.76.15-2.64-4.59-.4-9.26-1.52-13.77-1.08-28.9,2.81-57.75,6.17-86.67,8.83-5.81.54-7.74,2.96-9.04,8.12-12.02,47.67-24.23,95.28-36.44,142.9-4.87,18.98-9.87,37.92-14.82,56.88Zm-123.26-357.25c-2.77,14.4-8.73,27.25-17.77,38.59-1.65,2.06-4.75,2.97-7.18,4.41-1.24-2.85-3.89-5.94-3.44-8.49.96-5.46,3.52-10.64,5.32-15.64-10.07,2.57-16.36,9.85-18.99,20.7-2.52,10.4,1.99,20.52,11.06,24.76,8.46,3.96,19.73,1,25.78-6.93,13.68-17.93,17.14-36.9,5.22-57.4Zm11.85,245.52c-2.85,13.05-4.99,25.64-8.45,37.85-3.49,12.36-8.54,24.27-12.44,36.53-4.77,14.99-6.5,30.35-1.6,45.61,2.15,6.7,5.95,12.87,9.01,19.28.7-.34,1.41-.69,2.11-1.03-.74-2.65-1.66-5.27-2.2-7.96-3.49-17.6,1.13-34.39,5.74-51.03,3.12-11.25,7.85-22.05,11.16-33.26,4.59-15.53,2.54-30.74-3.33-46Zm195.67-145.88c-4.08-.57-8.15-1.15-12.23-1.72.06-.28.12-.56.18-.84,7.06-1.01,14.11-2.02,21.17-3.03.15-.6.31-1.21.46-1.81-35.59-.43-53.85-21.98-64.58-53.8-1.7,3.08-2.58,4.66-3.74,6.78-1.67-4.67-3.04-8.5-4.42-12.34-.56-.02-1.13-.05-1.69-.07-.89,2.9-1.78,5.79-2.65,8.64-1.21-2.66-2.4-5.3-3.6-7.94-1.05,21.19,8.21,37.7,23.23,51.3,13.51,12.22,29.19,18.48,47.86,14.85Zm-72.46,74.65c9.39-3.39,13.78-9.88,17.62-17.37,4.19-8.16-.5-15.41-1.66-22.83-1.58-10.06-4.63-19.72-12.87-27.3-10.44-9.6-19.9-20.26-29.68-30.56-1.6-1.68-2.66-3.88-3.97-5.84-.66.61-1.31,1.22-1.97,1.83.93,2.98,1.86,5.97,2.79,8.95-.25.13-.5.25-.75.38-2.13-2.58-4.25-5.16-6.38-7.74-.32,2.93.41,5.26,1.3,7.52,5.32,13.58,16.65,22.31,26.23,32.45,16.52,17.48,19.87,37.76,9.34,60.5Zm-281.48,30.19c-.8-.08-1.6-.15-2.4-.23-.75,3.25-1.83,6.47-2.19,9.76-1.41,13.02-3.13,26.04-3.75,39.11-1.29,27.42-.82,54.83,6.1,81.62,1.41,5.47,4.79,10.42,7.26,15.62.93-.34,1.87-.69,2.8-1.03-11.48-47.78-6.03-96.52-7.82-144.85Zm313.58,141.2c-.17-1.04-.34-2.08-.51-3.12-8.28,1.44-16.57,2.87-25.53,4.43,16.17-63.83,32.05-126.51,47.94-189.19-1.14-.47-2.27-.94-3.41-1.41-1.27,2.09-3.16,4.03-3.72,6.3-14.1,56.56-28.07,113.15-42.03,169.75-1.58,6.41-2.93,12.87-4.59,20.22,11.57-2.53,21.71-4.75,31.85-6.97Zm36.38-213.12c-1.65,5.66-.16,7.75,5.62,7.11,12.78-1.43,25.6-2.75,38.44-3.5,14.04-.82,28.11-5.17,42.18.3.13-.59.25-1.18.38-1.77-8.56-2.32-17.13-4.64-25.69-6.95.04-.34.08-.68.13-1.01,10.65,1.5,21.31,3,31.96,4.5-5.67-3.16-11.79-7.42-18.01-7.56-31.23-.7-62.49-.32-93.73-.32-.06.63-.12,1.27-.19,1.9,12.99,1.19,25.98,2.37,38.97,3.56-.04.5-.09.99-.13,1.49-6.67.76-13.34,1.51-19.92,2.26Zm193.35-117.52c2.53-8.53.19-15.63-3.61-21.6-8.5-13.36-18.14-25.99-26.89-39.2-4.18-6.31-7.44-13.23-10.99-19.94-1.3-2.45-2.24-5.09-3.34-7.64-.2,6.19,2.45,12.22,1.44,17.56-2.79,14.76,5.84,24.94,12.15,36.27,5.06,9.09,9.7,18.42,14.25,27.09,9.88-2.38,3.28-9.11,4.92-15.86,4.4,8.5,7.98,15.39,12.08,23.31Zm-228.35,122.08c1.15-3.35,2.91-6.62,3.33-10.05,1.49-12.31-1.13-23.15-11.57-31.31-5.99-4.69-11.35-10.18-17.17-15.47,2.85,4.15,5.55,8.09,8.26,12.03l-1.99,1.49c-8.42-11.03-16.85-22.06-25.48-33.35.6,2.13,1.07,3.83,1.95,6.99-2.64-2.93-4.08-4.53-5.53-6.13-.31.19-.62.38-.92.57,1.22,3.37,2.44,6.73,4.27,11.8-2.92-3.21-4.57-5.03-6.23-6.85,3.56,15.82,14.63,25.57,26.9,34.3,12.37,8.8,22.6,18.93,24.18,35.98Zm268.39-113.27c-.31,13.27-2.95,25.16,4.35,35.55,5.62,8,12.02,15.47,18.25,23.02,1.13,1.36,3.14,1.99,4.75,2.96.63-1.97,1.83-3.96,1.8-5.92-.41-22.63-11.63-39.74-29.15-55.62Zm-748.13,1.49c-17.13,14.03-26.7,31.55-26.96,53.73-.02,1.83.89,4.09,2.17,5.31.56.54,3.69-.54,4.71-1.71,14.21-16.2,27.73-32.74,20.07-57.33Zm375.86-249.72c-9.15.05-16.78,7.89-16.69,17.15.1,9.73,7.33,16.76,16.55,17.1,9.9.37,15.73-10.23,16.17-19.92.33-7.43-7.77-14.38-16.03-14.34Zm-76.31,338.48c-6.25-.93-10.19,2.09-11.39,7.26-2.31,9.91-5.18,20.03-5.14,30.05.06,12.85,6.18,23.91,16.35,32.48-4.01-21.13-.67-41.67,4.61-62.11-.72-.14-1.45-.28-2.17-.43-1.81,3.71-3.62,7.41-5.43,11.12-.28-.12-.57-.24-.85-.36,1.31-5.86,2.62-11.72,4.02-18.01Zm483.34,111.41c-4.22,2.77-3.04,5.55-.17,8.5,7.44,7.64,10.62,16.9,10.41,27.47-.09,4.45.18,8.91-.04,13.35-.89,18.11-8.92,32.21-24.12,42.11-10.75,7-22.98,8.71-35.41,10.21-6.1.73-12.31,2.76-17.79,5.53-2.34,1.18-4.96,7.12-3.99,8.58,3.13,4.69,6.79,1.28,9.88-1.35,1.07-.91,2.33-1.68,3.15-2.79,3.34-4.52,7.85-5.83,13.31-6.48,7.6-.91,15.42-2.19,22.5-4.96,26.69-10.46,39.94-34.98,37.05-66.48-.95-10.37-3.81-19.66-11.24-27.3-1.51-1.56-2.2-3.91-3.54-6.39Zm-816.49-.53c-.83,2.14-1.08,4.61-2.43,5.99-7.48,7.62-10.34,17.03-11.52,27.27-4.19,36.19,15.71,65.39,49.31,71.36,10.31,1.83,21.29,1.18,27.45,12.06.11.19.38.46.52.43,2.66-.56,5.32-1.17,7.98-1.76-.51-1.96-.42-5.01-1.64-5.69-5.01-2.77-10.27-5.33-15.74-6.96-4.42-1.32-9.28-1.12-13.92-1.73-19.67-2.58-35.71-11.74-43.75-30-9.45-21.46-11.38-43.47,5.09-63.41,2.47-2.99,3.15-5.71-1.34-7.57Zm563.32-320.86c29.52,20.72,55.93,44.7,77.79,73.37,22.09,28.97,36.49,61.8,46.97,96.54-9.86-63.92-63.74-136.59-124.76-169.92ZM119.02,431.54c-3.04,4.57-2.67,7.89.19,15.99,1.12,3.19,1.46,7.38.38,10.5-4.66,13.55-5.84,27.45-4.8,41.53.42,5.64-.45,10.26-3.5,15.16-11.66,18.76-11.03,46.75,1.18,62.38,2.45,3.14,5.83,5.56,8.78,8.3.49-.52.99-1.04,1.48-1.56-.57-.94-.96-2.08-1.74-2.78-17.71-15.91-17.37-48.06-5.69-64.88,3.32-4.79,4.03-9.59,3.62-15.16-1.12-15.29-.5-30.39,6.33-44.62.84-1.75,1.41-4.22.86-5.94-2.04-6.3-4.61-12.44-7.1-18.92Zm830.13-.25c-.87-.03-1.74-.06-2.61-.1-2.38,6.51-4.85,13-7.06,19.57-.39,1.15,0,2.79.52,3.99,7,15.92,7.84,32.6,6.72,49.64-.18,2.77.69,6.08,2.2,8.41,15,23.13,13.65,47.06-4.04,68-.94,1.11-1.44,2.6-2.14,3.91l2.21,1.51c3.77-4.55,8.48-8.62,11.15-13.74,9.77-18.75,9.89-37.87-.75-56.35-3.29-5.71-4.37-11.19-4.66-17.71-.59-13-2.25-26.02-4.49-38.85-.92-5.25-1.47-9.73.54-14.86,1.63-4.15,1.67-8.93,2.42-13.42Zm-515.7,110.35c-8.85-28.66,10.46-47.11,25.09-69.03-19.62,8.2-31.9,19.97-34.93,39.71-1.71,11.16,1.06,20.88,9.84,29.31Zm127.01-339.32c6.06-12.02,1.93-24.82-9.59-32.21-14.11-9.05-30.84-6.74-41.14,5.68-7.01,8.46-8.32,20.7-2.35,26.7,1.96-16.24,8.03-29.5,26.22-30.45,14.37-.75,21.67,8.25,26.86,30.28Zm26.61,239.13c-2.66-5.57-5.13-10.73-7.55-15.79-4.35,5.62-7.5,11.32-12.15,15.24-4.83,4.07-11.11,6.4-16.77,9.5,1.52,2.36,2.79,4.88,4.59,6.92,1.2,1.37,3.61,3.28,4.72,2.88,7.99-2.93,16.04-5.9,23.51-9.92,2.8-1.51,4.09-5.82,7.02-10.31-2.61,1.15-3.4,1.5-3.37,1.48Zm-228.89-36.35c2.71-7.12.57-14.43-3.03-21.46-2.45-4.78-5.35-9.33-7.85-14.09-5.31-10.14-7.3-20.87-3.36-31.82,2.12-5.9,5.66-11.28,8.27-16.33-16.03,5.45-30.88,25.79-26.17,37.67,1.39-3.42,2.41-6.52,3.89-9.38,1.44-2.79,3.39-5.32,5.06-8.01,1.49-2.4,2.9-4.85,4.35-7.28.63.27,1.25.55,1.88.82-8.11,14.67-5.24,28.45,2.39,42.06,5.22,9.3,9.91,18.88,14.57,27.83Zm85.07,181.66c-.16,26.22,21.66,42.75,26.89,67.52,5.01-28.91-8.28-49.04-26.89-67.52Zm303.43,13.33c-9.85,36.8-19.48,72.8-29.11,108.81.97.27,1.95.54,2.92.81,12.08-33.7,19.98-68.67,29.93-102.91,2.97-.53,5.75-1.02,8.52-1.52-.04-.4-.08-.79-.12-1.19-3.7-1.22-7.39-2.44-12.14-4Zm-226.65-342.2c-35.86-5.45-138.66,31.65-148.96,53.11,45.27-29.95,94.37-49.14,148.96-53.11Zm-42.48,124.49c-.82,4.14-1.4,7.32-2.08,10.48-1.27,5.97.68,8.09,7.16,8.54,6.54.45,12.96,3.15,19.36,5.1,3.44,1.05,6.74,2.59,9.9,3.84,5.86-9.08,5.97-9.62,1.05-11.91-11.43-5.32-22.96-10.43-35.4-16.05Zm199.57,6.88l-.54,1.16c8.13,8.34,16.24,16.69,24.39,25.01.81.83,1.9,1.39,2.68,2.24,7.26,7.88,14.82,15.52,21.61,23.8,4.64,5.65,1.91,12.19-5.28,13.88-3.14.73-6.5.8-9.75.72-6.09-.15-12.17-.63-19.08-1.02,9.09,6.48,27.43,7.04,35.32,1.48,5.23-3.68,6.94-8.86,4.69-14.79-1.13-2.98-2.97-5.97-5.22-8.21-13.41-13.36-26.96-26.57-40.66-39.62-2.2-2.09-5.41-3.11-8.15-4.63Zm32.63,304.48c.82.35,1.64.7,2.47,1.05,1.4-3.51,3.17-6.92,4.15-10.54,7.79-28.75,15.47-57.53,23.05-86.33.42-1.61-.31-3.52-.5-5.29-1.1,1.39-2.76,2.61-3.2,4.18-5.41,19.25-10.72,38.54-15.9,57.86-3.48,12.99-6.72,26.05-10.06,39.08Zm149.81-257.78c1.85,19.86,19.35,35.62,46.95,43.05-9.76-20.74-32.37-26.88-46.95-43.05Zm.12-196.19c-1.08,12.9-4.84,23.32-19.92,26.36,17.33,1.69,17.12,15.3,19.71,27.62,1.83-7,2.08-13.41,5.1-17.99,3-4.53,8.79-7.21,13.75-10.99-14.66-1.42-17.44-12.17-18.64-25Zm-671.46,26.59c16.99,1.36,17.52,14.29,19.89,26.6,1.28-12.9,4.08-24.2,19.51-27.4-14.77-1.94-17.91-12.11-19.56-24.33-.99,13.02-5.66,22.36-19.83,25.14Zm267.8-59c-8.57-22.62-45.15-33.79-59.23-19.6,21.06,1,39.5,9.3,59.23,19.6Zm-285.24,234.02c7.34,1.62,8.94-2.82,10.41-7.9,3.64-12.55,7.4-25.06,11.4-37.5.96-2.98,3.04-5.6,4.61-8.39-19.67,12.57-26.9,31.05-26.41,53.79Zm722.09,1.7c3.73-21.71-5.11-47.24-22.48-55.95,3.62,10.17,7.66,21.21,11.44,32.34,1.95,5.72,3.06,11.75,5.29,17.35.98,2.46,3.78,4.19,5.75,6.26Zm-128.86-36.99c-2.21,10.97-8.83,17.25-19.62,20.21,11.57,1.27,17.66,7.67,19.74,19,1.14-13.42,10.15-17.28,21.1-19.58-11.83-1.73-19.15-7.34-21.22-19.63Zm-570.83,43.35c-15.93,7.11-27.76,17.88-35.81,32.84,8.95-4.12,17.36-9.03,26.07-13.35,8.05-4,12.63-9.43,9.75-19.49Zm236.51-126.75c1.21-10.95,6.43-17.98,18.09-20.35-10.25-1.61-16.83-6.15-19-16.67-2,10.49-9.55,14.02-18.12,17.37,12.98.69,15.3,10.58,19.03,19.65Zm93.23,410.26c-9.7,24.9-1.83,53.16,14.17,56.96-3.73-6.86-7.84-14.44-11.96-22.03.5-.27,1-.54,1.5-.81,3.29,4.85,6.58,9.71,9.86,14.56-8.73-15.18-13.08-31.32-13.57-48.68Zm24.06-300.88c6.65.11,12.06-3.78,12.33-8.87.29-5.67-5.67-10.61-13.11-10.86-5.46-.18-11.42,4.44-11.64,9.02-.26,5.52,5.62,10.59,12.42,10.71Zm222.66,100.56c-10.19-19.82-7.02-37.7,7.36-54.23-12.49,6.14-20.33,15.53-21.31,29.21-.77,10.77,3.84,19.41,13.95,25.01ZM433.18,173c16.31,4.66,26.89,17.29,39.09,28.75,3.88-17.71-16.84-32.54-39.09-28.75Zm-286.93,205.5c-5.8-1.54-9.41.76-9.05,7.63.57,10.92.68,21.65-.94,32.5-.36,2.43,2.26,6.95,4.43,7.64,2.01.64,5.72-2.08,7.77-4.21,1.19-1.24,1.26-4.43.65-6.38-1.61-5.12-3.62-10.15-5.93-15-3.77-7.9-3.8-15.15,3.08-22.2Zm781.24,13.16c.72-.13,1.45-.26,2.17-.39-1.23-3.7-2.32-7.46-3.83-11.04-.3-.72-2.19-.78-3.35-1.15-.1,1.01-.68,2.4-.23,2.96,4.95,6.15,2.72,12.27.16,18.41-2.24,5.37-4.86,10.6-6.7,16.09-1.6,4.78,1.89,9.66,6.82,10.25,5.21.62,6.05-3.37,6.83-7.06.38-1.79.3-3.73.15-5.58-.61-7.5-1.34-14.99-2.02-22.49Zm-660.34-106.3c.71-.42,1.43-.84,2.14-1.26-2.33-2.91-4.64-5.82-6.98-8.72-1.33-1.65-3.34-3.06-3.94-4.94-2.56-8.01-8.76-10.53-15.44-5.4-2.86,2.19-4.73,5.66-7.09,8.52-2.99,3.62-5.63,7.64-9.12,10.7-5.02,4.42-7.5,9.46-6.69,16.18,1.7-1.27,2.42-3.11,3.56-4.62,6.88-9.16,15.84-16.47,21.47-26.92,2.78-5.16,8.36-2.33,9.94,4.08.66,2.67,2.92,5.16,4.97,7.22,2.06,2.06,4.76,3.47,7.18,5.17Zm-124.68,347.44c-8.43,5.16-16.23,9.79-18.1,19.92,9.84-16.35,26.18-19.82,43.46-21.47,0-.61-.01-1.22-.02-1.83-1.99-1.28-3.98-2.57-4.63-2.99-3.13,1.71-4.93,3.32-6.95,3.67-6.56,1.15-12.37-.78-17.76-4.77-3.33-2.46-7.04-4.84-10.96-6-8.22-2.44-16.29,2.27-17.93,12.34,12.56-16.78,21.92-5.99,32.88,1.13Zm813.98-3.5c-3.29-10.13-13.75-12.91-23.65-7.36-3.86,2.17-7.34,5.03-11.26,7.06-6.83,3.53-15.42,1.71-17.97-4.23-1.97,1.85-3.7,3.47-6.72,6.31,19.33,1.53,34.76,6.85,44.84,22.67.65-.8,1.31-1.6,1.96-2.4-6.2-6.18-12.41-12.35-18.58-18.5,8.94-7.34,18.35-16.27,31.38-3.55Zm-154.25-134.11c-.61-.54-1.22-1.08-1.83-1.62-19.19,6.08-30.32,21.77-23.02,33.89,8.42-10.93,16.63-21.6,24.85-32.27Zm-74.26-93.39c.99-9.29,4.18-16.65,15.52-19.88-10.24-2.51-14.02-8.73-15.91-17.05-1.12,9.18-7.04,13.99-15.17,17.78,11.13,1.96,14.01,9.8,15.56,19.15Zm-64.66,79.85c-6.55-12.15-12.16-22.55-17.76-32.94-.4.14-.8.28-1.2.43.56,2.06,1.12,4.12,1.68,6.18l-.76.34c-1.64-2.27-3.28-4.53-4.92-6.8-.27.15-.53.31-.8.46.94,2.94,1.87,5.88,2.81,8.82-.35.16-.7.31-1.05.47-1.8-2.84-3.6-5.69-5.4-8.53,2.56,15.3,11.36,25.26,27.41,31.57Zm-252.8-277.24c-12.07-10.94-35.13-9.01-45.89,2.4,15.73-.82,30.81-1.61,45.89-2.4Zm-40.32,13.82c-12.69-4.63-29.99-.48-37.75,9.77,14.43,2,26.99-.11,37.75-9.77Zm390.59,333.99c-2.09,7.02-4.62,14.75-6.55,22.62-.41,1.66,1.37,3.86,2.13,5.81,1.62-1.17,4.04-1.99,4.71-3.56,2.16-5.08,3.32-10.59,5.58-15.61,1.04-2.3,3.51-4.23,5.76-5.63,2.67-1.66,5.81-2.57,8.75-3.8l-.55-1.07c-6.26.39-12.52.78-19.83,1.24ZM199.09,417.33c8.66-7.37,15.94-27.71,14.89-41.9-6.53,13.86-17.63,25.14-14.89,41.9Zm624.74-128.11c13.85-10.24,15.19,3.62,20.51,10.29.94-10.68-2.72-15.86-11.58-18.8-1.96-.65-3.72-3.37-4.59-5.53-1.73-4.3-2.57-8.96-4.23-13.29-.55-1.43-2.47-2.33-4.01-3.69,1.37,10.85,2.59,20.58,3.9,31.03Zm-49.94,241.2c-5.17-22.62,7.78-35.28,22.46-48.21-25.71,8.42-35.78,32.99-22.46,48.21Zm-46.31-280.52c-6.89-3.18-13.78-6.36-20.67-9.55-5.37-2.49-8.61-.29-11.23,5.25,10.5,3.12,19.18,11.95,31.9,4.29Zm-222.49,173.29c-.02-5.55-5.1-10.66-10.1-10.55-5.11.12-8.32,2.82-8.45,8.18-.12,5.09,4.72,9.35,10.35,9.01,4.58-.28,8.08-2.16,8.21-6.64Zm-107.57-207.72c2.39,2.29,3.65,4.58,5.27,4.87,10.61,1.92,20.43.05,29.91-7.34-12.06-3.84-22.53-1.15-35.18,2.47Zm118.68,193.23c-3.05,11.23-5.64,20.76-8.45,31.14,15.19-4.08,17.55-9.8,10.92-22.22-1.11-2.07-1.32-4.63-2.47-8.93Zm-143.72-167.3c-.25-.65-.5-1.3-.75-1.95-10.33-2.18-19.43,1.4-28.87,6.56,1.95,2.86,3.49,5.12,5.43,7.98,8.34-4.34,16.26-8.46,24.18-12.59Zm-118.71,347.24c3.41,3.58,7.48,7.85,10.68,11.21,3.6-3.63,7.73-7.79,10.97-11.06-3.74-3.23-7.88-6.82-11.06-9.58-3.49,3.11-7.44,6.62-10.59,9.42Zm569.37-94.97c-.56-.5-1.13-1-1.69-1.49-14.76,13.75-29.87,27.19-40.15,44.9l1.51,1.33c13.44-14.91,26.88-29.83,40.32-44.74Zm-599.04,13.32c-5.67-6.17-12.13-13.2-18.68-20.33-.98,7.17-1.95,14.26-2.78,20.33h21.46Zm666.41,90.51c-13.41,3.66-21.92,17.57-17.46,29.26,6.35-10.65,11.91-19.95,17.46-29.26ZM145.58,366.05c.52.21,1.04.42,1.55.63,1.71-4.7,4.81-9.38,4.83-14.09.06-10.68,4.81-18.53,11.68-25.9,1.86-2,2.5-5.15,3.7-7.76-4.61,3.12-7.84,6.7-10.62,10.6-2.54,3.56-5.62,7.19-6.67,11.26-2.13,8.26-3.05,16.83-4.47,25.27Zm36.6,120.73c-1.43,2.26-4.52,5.08-4.92,8.25-.61,4.88,3.26,7.68,7.95,7.75,4.43.06,7.7-2.46,7.63-7.27-.07-5.3-3.59-7.7-10.66-8.73Zm-6.14,110.98c6.07,8.54,7.56,20.2,17.88,27.17,1.75-12.19-6.12-23.98-17.88-27.17Zm721.72-278.94c2.57,4.04,4.57,8.62,7.83,12,4.99,5.17,7.43,10.56,7.56,17.96.1,5.9,2.81,11.75,4.36,17.62.57-.18,1.15-.36,1.72-.53-.84-18.22-4.11-35.48-21.46-47.04ZM147.48,615.83c-5.5-9.9-10.19-18.33-15.47-27.82-4.12,13.19,2.28,25.21,15.47,27.82Zm747.05-1.59c9.45-.56,18.11-10.45,18.94-20.96-11.34,2.2-15.59,10.66-18.94,20.96ZM279.74,254.05c3.07,7,5.53,12.93,8.32,18.7.54,1.11,2.31,2.16,3.56,2.21.86.04,2.19-1.54,2.63-2.66,3.21-8.33-3.15-17.59-14.5-18.25Zm-127.18,339.18l-2.31,1.9c4.36,5.75,8.58,11.61,13.21,17.14.8.95,3.31.48,5.03.66.12-1.61.82-3.48.25-4.79-3.18-7.33-8.02-13.02-16.18-14.9Zm732.57-106.86c-1.06-.03-2.12-.06-3.18-.08-2.26,2.99-5.76,5.71-6.47,9.03-.91,4.25,2.48,6.86,7.03,6.46,4.76-.42,8.43-2.97,7.76-7.98-.36-2.66-3.34-4.96-5.14-7.42ZM304.23,148.49c-15.34.34-30.87,12.01-31.69,22.77,10.18-7.32,21.02-15.11,31.69-22.77Zm615.26,465.46c12.13-1.16,18.39-14.2,13.27-24.33-4.62,8.47-8.94,16.4-13.27,24.33ZM237.44,362.9c-.67-.14-1.35-.29-2.02-.43-2.3,4.78-4.82,9.47-6.81,14.38-1.13,2.8,4.19,10.5,6.54,9.53,1.75-.73,3.32-4.09,3.37-6.31.12-5.71-.66-11.45-1.08-17.17Zm364.72,324.33c-11.27,11.5-13.7,25.97-15.05,40.84,1.31-1.9,2.44-3.9,3.18-6.03,4.01-11.58,7.92-23.2,11.87-34.8Zm-368.51-125.27c-2.86,14.85,1.32,45.14,6.84,55.85-2.36-19.31-4.6-37.58-6.84-55.85Zm-1.92-223.62c-6.29,5.47-12.65,11-19.68,17.12,16.09-1.28,22.81-7.91,19.68-17.12Zm36.2-35.02c.39.47.78.95,1.17,1.42,3.85-2.52,8.6-4.34,11.31-7.76,3.25-4.09,3.13-9.35-1.49-13.89-3.81,7.01-7.4,13.62-11,20.23Zm-73.85,411.86c.58,5.43,9.02,13.61,16.62,16.11-.89-9.99-8.19-17.06-16.62-16.11Zm659.91,18.23c7.18-6.64,12.87-11.89,19.63-18.14-11.45-1.45-18.21,4.9-19.63,18.14Zm-108.81-459.87c2.64,5.63,12.19,11.65,18.47,11.63-4.36-12.04-6.5-13.39-18.47-11.63Zm-257.38-105.66c6.8,7.58,12.13,7,17.17-1.66-5.79-5.09-10.82-4.73-17.17,1.66Zm190.8,315.04c.56-.34,1.12-.67,1.68-1.01-5.3-8.42-10.6-16.84-15.9-25.27-.96,10.03,3.76,17.8,14.21,26.28Zm211.55-92.88c.99-6.94-5.28-14.85-14.36-18.86,1.29,8.43,3.74,11.71,14.36,18.86Zm-699.4-20.35c-7.81,6.22-13.56,11.66-15.51,20.12,7.91-3.74,14.1-8.84,15.51-20.12Zm420.35,251.67c.69-.44,1.39-.89,2.08-1.33-3.28-7.06-6.56-14.12-9.85-21.19-.29.06-.57.11-.86.17.15,1.79.29,3.59.47,5.82-1.43-.94-2.29-1.51-3.14-2.08-.47.41-.95.83-1.42,1.24,4.24,5.79,8.48,11.58,12.71,17.36ZM260.97,245.71c-2.96-2.62-5.87-5.21-8.24-7.31-2.87,2.5-5.77,5.02-8.22,7.15,2.64,2.02,5.8,4.44,8.26,6.33,2.87-2.16,5.8-4.37,8.2-6.17Zm593.6,108.51c-6.83-6.3-13.05-12.04-20.23-18.68,3.55,12.6,9.4,17.94,20.23,18.68Zm-275.93-185.9c-4.74-6.39-9.17-7.23-17.04-3.24,4.33,7.25,7.33,7.82,17.04,3.24Zm-4.66,20.91c.97-.44,1.78-.56,2.15-1.03,2.61-3.31,9.96-3.71,7.39-9.62-.56-1.29-8.09.44-13.45.86,1.68,4.22,2.77,6.95,3.91,9.79Zm210.18,465.08c-.53.46-1.05.92-1.58,1.38,6.14,7.84,12.27,15.68,18.41,23.52.51-.39,1.02-.78,1.53-1.18-4.36-9.24-9.55-17.84-18.36-23.73ZM265.17,224.33c-3.23,6.87,6.55,18.24,15.19,17.88-4.96-5.83-10.11-11.91-15.19-17.88Zm7.52-86.94c6.4-3.27,13.23-6.77,20.23-10.35-14.63-.73-21.09,3.16-20.23,10.35Zm129.99,394.1l-4.25,3.98c-1.38-3.36-2.75-6.71-4.13-10.07,1.22.38,2.44.75,3.66,1.13-2.34,2.3-4.69,4.6-7.03,6.9-.78-.78-1.57-1.56-2.35-2.34,2.5,2.1,5,4.21,7.24,6.09,2.35-1.95,4.61-3.81,6.86-5.68Zm67.34-251.3c-2.08,2.42-4.29,5-6.13,7.15,2.31,2.42,4.52,4.74,6.51,6.83,2.12-2.44,4.11-4.73,5.92-6.82-2.01-2.29-4.17-4.74-6.3-7.17Zm380.66,419.74c-.66-.19-1.32-.38-1.99-.57-2.12,5.43-4.23,10.87-6.69,17.18,7.55-1.07,9.56-5.93,8.68-16.61Zm-585.95-64.37c-2.09,2.68-4.23,5.42-6.36,8.16.61-.71,1.21-1.41,1.82-2.12,2,2.59,4.01,5.19,6.01,7.78l-3.56-1.86c2.65-1.71,5.29-3.42,7.55-4.88-1.29-1.67-3.34-4.33-5.46-7.08Zm434.54-294.21c1.85-2.44,3.74-4.92,5.47-7.2-1.7-2.1-3.57-4.4-5.42-6.71-2.07,2.32-4.13,4.64-6.04,6.79,1.83,2.17,3.81,4.52,6,7.12Zm187.76-17c6.31,6.37,11.24,11.35,16.17,16.33.6-.59,1.21-1.18,1.81-1.78-5.47-4.42-10.94-8.85-17.98-14.55ZM217.29,700.29c-.65.13-1.29.27-1.94.4-1.51,10.36-.26,14.24,7.4,17.65-2.09-6.93-3.78-12.49-5.46-18.05Zm36.77-399.64c-.62-.27-1.24-.54-1.85-.81-3.18,4.99-6.36,9.99-9.54,14.98l1.26.67c3.34-2.08,6.69-4.16,10.14-6.3v-8.54Zm-80.29,22.33c-4.66,5.81-8.85,11.03-14.17,17.67,10.08-4.35,16.12-12.21,14.17-17.67Zm99.95-50.47c-.68-7.46-1.29-14.14-2.01-22.02-5.22,8.78-4.32,16.53,2.01,22.02Zm222.08-86.91l.57-2.67c-4.61-2.06-9.23-4.12-15.78-7.04,1.41,3.32,1.78,6.46,3.16,7.01,3.78,1.49,8,1.88,12.04,2.7Zm-309.97,107.82c-1.79,2.6-3.39,4.92-4.73,6.86,1.78,2.84,3.52,5.62,5.16,8.23,1.71-2.83,3.47-5.73,5.11-8.45-1.79-2.14-3.57-4.29-5.54-6.65Zm570.21,159.32c-1.89,2.08-3.96,4.36-5.83,6.41,1.81,2.34,3.59,4.65,5.29,6.85,2.09-2.35,4.21-4.75,6.19-6.98-1.9-2.11-3.87-4.3-5.65-6.29ZM322.47,179.45c-1.75,5.59-3.49,11.18-5.24,16.77,7.55-3.86,9.32-9.46,5.24-16.77Zm560.46,120.53c-1.54-2.21-3.29-4.71-4.9-7.03-1.62,2.44-3.23,4.86-4.63,6.98,1.69,2.86,3.32,5.61,4.8,8.1,1.6-2.72,3.15-5.37,4.72-8.05Zm-351.29,104.92c-4.89-1.54-8.38-2.65-11.87-3.75-.4.53-.8,1.05-1.2,1.58,1.51,2.82,3.01,5.65,4.82,9.03,2.99-2.48,4.91-4.08,8.25-6.86Zm213.65-162.96h-10.47c-.13.52-.27,1.05-.4,1.57,3.76,2.38,7.52,4.76,12.39,7.83-.62-3.85-1.01-6.29-1.51-9.4Zm-258.92-39.4c3.33-1.24,5.89-1.95,8.14-3.21.49-.28.21-3.53-.27-3.68-2.77-.89-5.72-1.27-9.38-1.97.58,3.37.91,5.34,1.51,8.87Zm-110.25,25.77c.08,1.04.17,2.08.25,3.12,5.69-.42,11.37-.83,17.06-1.25-.08-1.07-.16-2.14-.24-3.21-5.69.45-11.38.89-17.06,1.34Zm391.25,361.3c-.04-.82-.08-1.64-.13-2.46-5.18-.88-10.36-1.77-16.75-2.86.78,1.8,1.24,4.28,1.99,4.37,4.92.6,9.91.69,14.88.94Zm68.38-355.85c1.55-2.29,3.13-4.61,4.71-6.94-1.55-1.95-3.31-4.17-5.01-6.31-1.8,2.16-3.62,4.35-5.19,6.25,1.84,2.34,3.73,4.75,5.5,7Zm9.17,575.09c-2.77,4.78-5.84,10.06-8.45,14.55,8.8-1.93,12.58-8.7,8.45-14.55Zm-458.32-492.25c-.99,1.52-2.33,3.57-3.77,5.8,1.59,1.72,3.21,3.46,4.8,5.18,1.97-2.23,3.73-4.23,5.49-6.22-.77.76-1.54,1.51-2.3,2.27-1.39-2.32-2.78-4.63-4.21-7.02Zm153.79,317.88c-.63.17-1.26.34-1.9.52,2.14,7.6,4.28,15.21,6.42,22.81.53-.15,1.07-.29,1.6-.44-2.04-7.63-4.09-15.26-6.13-22.89Zm-308.91,189.24c-3.04-4.63-6.31-9.62-9.95-15.18-.95,9.35,1.93,13.13,9.95,15.18Zm516.96-231.83c.59,2.08.8,4.29,1.3,4.36,4.8.66,9.64.96,14.47,1.36l.08-2.14c-2.51-.29-5.06-.39-7.52-.92-2.41-.52-4.73-1.48-8.33-2.65Zm-341.92-157.25c1.94-2.44,3.46-4.35,4.69-5.9-1.65-2.06-3.04-3.8-4.57-5.71-1.46,1.98-2.9,3.94-4.34,5.9,1.37,1.86,2.59,3.51,4.22,5.71Zm211.13,301.93c-.81,3.98-1.37,6.76-2.15,10.6,4.16-1.41,7.05-2.39,10.77-3.65-3.12-2.51-5.38-4.33-8.63-6.95Zm83.68-377.72c1.42,1.6,2.99,3.37,4.7,5.29,1.59-2.13,2.91-3.92,4.24-5.7-1.64-1.58-3.1-2.99-4.05-3.9-1.54,1.35-3.16,2.78-4.89,4.31Z"/>
  </g>
</svg>